# xmcd
#
# Track frame offsets: 
#        150
#        14330
#        38102
#        52777
#        73137
#        93400
#        112647
#        132992
#        149707
#        171677
#        191682
#        210075
#
# Disc length: 3324 seconds
#
# Revision: 11
# Processed by: cddbd v1.5.2PL0 Copyright (c) Steve Scherf et al.
# Submitted via: ExactAudioCopy v0.95a4
#
DISCID=a80cfa0c
DTITLE=Todd Snider - Songs For The Daily Planet
DYEAR=1994
DGENRE=Folk
TTITLE0=My Generation (Part 2)
TTITLE1=Easy Money
TTITLE2=That Was Me
TTITLE3=This Land Is Our Land
TTITLE4=Alright Guy
TTITLE5=I Spoke As A Child
TTITLE6=Turn It Up
TTITLE7=Trouble
TTITLE8=Alot More
TTITLE9=You Think You Know Somebody
TTITLE10=Somebody's Coming
TTITLE11=Joe's Blues and Seattle Grunge
EXTD=ID3G:   0
EXTT0=
EXTT1=
EXTT2=
EXTT3=
EXTT4=
EXTT5=
EXTT6=
EXTT7=
EXTT8=
EXTT9=
EXTT10=
EXTT11=
PLAYORDER=
